<svg 
 xmlns="http://www.w3.org/2000/svg"
 xmlns:xlink="http://www.w3.org/1999/xlink"
 width="267px" height="82px">
<defs>
<filter filterUnits="userSpaceOnUse" id="Filter_0" x="81px" y="0px" width="186px" height="82px"  >
    <feOffset in="SourceAlpha" dx="4" dy="6.928" />
    <feGaussianBlur result="blurOut" stdDeviation="4.123" />
    <feFlood flood-color="rgb(0, 0, 0)" result="floodOut" />
    <feComposite operator="atop" in="floodOut" in2="blurOut" />
    <feComponentTransfer><feFuncA type="linear" slope="0.2"/></feComponentTransfer>
    <feMerge>
    <feMergeNode/>
    <feMergeNode in="SourceGraphic"/>
  </feMerge>
</filter>
<linearGradient id="PSgrad_0" x1="0%" x2="0%" y1="100%" y2="0%">
  <stop offset="0%" stop-color="rgb(9,163,109)" stop-opacity="1" />
  <stop offset="100%" stop-color="rgb(129,193,68)" stop-opacity="1" />
</linearGradient>
<linearGradient id="PSgrad_1" x1="0%" x2="0%" y1="100%" y2="0%">
  <stop offset="0%" stop-color="rgb(9,120,175)" stop-opacity="1" />
  <stop offset="100%" stop-color="rgb(44,154,212)" stop-opacity="1" />
</linearGradient>

</defs>
<g filter="url(#Filter_0)">
<text font-family="Source Han Sans CN" fill="rgb(72, 72, 72)" transform="matrix( 0.51357491957237, 0, 0, 0.51357491957237,93.6704063376792, 53.2371977340858)" font-weight="bold" font-size="100px">&#29233;&#26234;&#23621;</text>
</g>
<path fill-rule="evenodd"  fill="url(#PSgrad_0)"
 d="M71.368,59.464 C66.987,63.362 64.078,62.985 59.881,62.805 C48.564,62.123 14.783,59.840 14.783,59.840 L43.636,41.227 C46.661,39.114 45.845,36.353 45.845,36.353 C44.520,32.535 38.244,32.739 38.244,32.739 L11.282,32.739 C8.937,32.603 9.823,31.256 10.291,30.836 C20.759,22.222 26.675,17.341 31.470,13.241 C33.993,10.825 36.646,10.728 38.483,11.106 C39.709,11.357 40.833,11.966 41.800,12.762 L62.399,29.692 C63.027,27.244 65.223,25.427 67.859,25.427 C68.027,25.427 68.184,25.463 68.348,25.477 L44.741,5.997 C36.177,-1.417 29.346,5.997 29.346,5.997 L5.590,25.683 C-5.492,35.646 4.519,38.568 4.519,38.568 L35.548,38.568 L6.048,57.317 C2.294,61.646 6.076,65.813 9.685,65.532 C22.260,65.534 62.226,64.305 62.226,64.305 C67.970,63.862 69.601,62.464 70.960,60.862 C72.284,59.147 71.368,59.464 71.368,59.464 Z"/>
<path fill-rule="evenodd"  fill="url(#PSgrad_1)"
 d="M68.078,35.799 C65.850,35.799 64.044,33.905 64.044,31.569 C64.044,29.233 65.850,27.338 68.078,27.338 C70.305,27.338 72.111,29.233 72.111,31.569 C72.111,33.905 70.305,35.799 68.078,35.799 ZM65.248,55.942 C65.410,55.585 65.478,55.192 65.478,54.797 L65.478,39.678 C65.481,39.674 65.466,39.535 65.466,39.465 C65.466,38.058 66.553,36.917 67.895,36.917 C69.237,36.917 70.324,38.058 70.324,39.465 C70.324,39.530 70.324,39.678 70.324,39.678 L70.324,55.120 C70.103,61.568 63.458,61.414 63.458,61.414 C60.974,61.645 53.391,60.704 53.391,60.704 C52.613,60.563 52.287,59.936 53.630,60.087 C56.987,60.390 60.622,59.539 60.622,59.539 C63.598,58.777 64.805,56.923 65.248,55.942 Z"/>
</svg>