<svg 
 xmlns="http://www.w3.org/2000/svg"
 xmlns:xlink="http://www.w3.org/1999/xlink"
 width="215px" height="271px">
<defs>
<filter filterUnits="userSpaceOnUse" id="Filter_0" x="15px" y="195px" width="193px" height="76px"  >
    <feOffset in="SourceAlpha" dx="4" dy="6.928" />
    <feGaussianBlur result="blurOut" stdDeviation="4.123" />
    <feFlood flood-color="rgb(0, 0, 0)" result="floodOut" />
    <feComposite operator="atop" in="floodOut" in2="blurOut" />
    <feComponentTransfer><feFuncA type="linear" slope="0.2"/></feComponentTransfer>
    <feMerge>
    <feMergeNode/>
    <feMergeNode in="SourceGraphic"/>
  </feMerge>
</filter>
<linearGradient id="PSgrad_0" x1="0%" x2="0%" y1="100%" y2="0%">
  <stop offset="0%" stop-color="rgb(9,163,109)" stop-opacity="1" />
  <stop offset="100%" stop-color="rgb(129,193,68)" stop-opacity="1" />
</linearGradient>
<linearGradient id="PSgrad_1" x1="0%" x2="0%" y1="100%" y2="0%">
  <stop offset="0%" stop-color="rgb(9,120,175)" stop-opacity="1" />
  <stop offset="100%" stop-color="rgb(44,154,212)" stop-opacity="1" />
</linearGradient>

</defs>
<g filter="url(#Filter_0)">
<text font-family="ShiShangZhongHeiJianTi" fill="rgb(72, 72, 72)" transform="matrix( 0.51357491957237, 0, 0, 0.51357491957237,27.1028929746662, 241.537147226027)" font-size="100px">&#29233;&#26234;&#23621;</text>
</g>
<path fill-rule="evenodd"  fill="url(#PSgrad_0)"
 d="M212.128,170.401 C199.042,182.042 190.354,180.918 177.818,180.380 C144.015,178.343 43.114,171.522 43.114,171.522 L129.296,115.929 C138.330,109.617 135.894,101.370 135.894,101.370 C131.935,89.966 113.189,90.577 113.189,90.577 L32.657,90.577 C25.654,90.169 28.300,86.145 29.697,84.892 C60.965,59.162 78.634,44.583 92.955,32.337 C100.492,25.121 108.416,24.831 113.905,25.959 C117.565,26.711 120.922,28.530 123.812,30.905 L185.337,81.473 C187.215,74.164 193.773,68.737 201.647,68.737 C202.148,68.737 202.619,68.843 203.108,68.884 L132.595,10.701 C107.015,-11.444 86.611,10.701 86.611,10.701 L15.655,69.500 C-17.446,99.259 12.457,107.987 12.457,107.987 L105.136,107.987 L17.025,163.987 C5.810,176.917 17.109,189.365 27.887,188.525 C65.447,188.530 184.822,184.859 184.822,184.859 C201.977,183.535 206.850,179.361 210.910,174.576 C214.863,169.452 212.128,170.401 212.128,170.401 Z"/>
<path fill-rule="evenodd"  fill="url(#PSgrad_1)"
 d="M202.299,99.715 C195.645,99.715 190.251,94.058 190.251,87.080 C190.251,80.102 195.645,74.445 202.299,74.445 C208.952,74.445 214.345,80.102 214.345,87.080 C214.345,94.058 208.952,99.715 202.299,99.715 ZM193.849,159.881 C194.331,158.815 194.535,157.640 194.535,156.460 L194.535,111.301 C194.542,111.291 194.498,110.875 194.498,110.665 C194.498,106.462 197.746,103.054 201.754,103.054 C205.762,103.054 209.010,106.462 209.010,110.665 C209.010,110.860 209.008,111.301 209.008,111.301 L209.008,157.427 C208.348,176.685 188.503,176.224 188.503,176.224 C181.081,176.916 158.432,174.105 158.432,174.105 C156.110,173.684 155.134,171.810 159.146,172.260 C169.173,173.166 180.030,170.623 180.030,170.623 C188.919,168.347 192.524,162.812 193.849,159.881 Z"/>
</svg>