<svg 
 xmlns="http://www.w3.org/2000/svg"
 xmlns:xlink="http://www.w3.org/1999/xlink"
 width="284px" height="254px">
<defs>
<linearGradient id="PSgrad_0" x1="0%" x2="0%" y1="100%" y2="0%">
  <stop offset="0%" stop-color="rgb(9,163,109)" stop-opacity="1" />
  <stop offset="100%" stop-color="rgb(129,193,68)" stop-opacity="1" />
</linearGradient>
<linearGradient id="PSgrad_1" x1="0%" x2="0%" y1="100%" y2="0%">
  <stop offset="0%" stop-color="rgb(9,120,175)" stop-opacity="1" />
  <stop offset="100%" stop-color="rgb(44,154,212)" stop-opacity="1" />
</linearGradient>

</defs>
<path fill-rule="evenodd"  fill="url(#PSgrad_0)"
 d="M260.304,208.320 C244.986,221.948 234.815,220.631 220.141,220.001 C180.572,217.617 62.458,209.633 62.458,209.633 L163.341,144.556 C173.917,137.167 171.066,127.513 171.066,127.513 C166.431,114.164 144.487,114.879 144.487,114.879 L50.218,114.879 C42.019,114.402 45.117,109.691 46.752,108.224 C83.354,78.105 104.037,61.039 120.801,46.704 C129.624,38.257 138.900,37.918 145.325,39.238 C149.610,40.118 153.540,42.247 156.922,45.028 L228.942,104.223 C231.141,95.666 238.818,89.313 248.035,89.313 C248.621,89.313 249.172,89.437 249.746,89.486 L167.203,21.378 C137.260,-4.546 113.375,21.378 113.375,21.378 L30.315,90.207 C-8.432,125.042 26.572,135.259 26.572,135.259 L135.060,135.259 L31.919,200.812 C18.791,215.947 32.017,230.519 44.633,229.536 C88.601,229.542 228.340,225.245 228.340,225.245 C248.422,223.695 254.126,218.809 258.878,213.207 C263.505,207.209 260.304,208.320 260.304,208.320 Z"/>
<path fill-rule="evenodd"  fill="url(#PSgrad_1)"
 d="M248.798,125.576 C241.009,125.576 234.695,118.954 234.695,110.786 C234.695,102.617 241.009,95.995 248.798,95.995 C256.586,95.995 262.900,102.617 262.900,110.786 C262.900,118.954 256.586,125.576 248.798,125.576 ZM238.906,196.005 C239.471,194.757 239.710,193.383 239.710,192.002 L239.710,139.139 C239.718,139.127 239.666,138.639 239.666,138.394 C239.666,133.474 243.469,129.485 248.161,129.485 C252.852,129.485 256.654,133.474 256.654,138.394 C256.654,138.622 256.652,139.139 256.652,139.139 L256.652,193.133 C255.879,215.676 232.648,215.137 232.648,215.137 C223.961,215.946 197.448,212.655 197.448,212.655 C194.730,212.163 193.587,209.970 198.284,210.496 C210.021,211.557 222.730,208.580 222.730,208.580 C233.136,205.916 237.356,199.437 238.906,196.005 Z"/>
</svg>